<svg style="position: absolute; width: 0; height: 0;" width="0" height="0" version="1.1" xmlns="http://www.w3.org/2000/svg" xmlns:xlink="http://www.w3.org/1999/xlink">
  <defs>
    <symbol id="icon-backspace" viewBox="0 0 24 24">
      <path d="M19.5 5h-10c-1.266 0-2.834 0.807-3.57 1.837l-2.61 3.653c-0.642 0.898-1.182 1.654-1.199 1.679-0.121 0.175-0.122 0.492 0.003 0.664 0.023 0.033 0.555 0.777 1.188 1.664l2.619 3.667c0.735 1.029 2.302 1.836 3.569 1.836h10c1.379 0 2.5-1.122 2.5-2.5v-10c0-1.378-1.121-2.5-2.5-2.5zM17.207 14.793c0.391 0.391 0.391 1.023 0 1.414-0.195 0.195-0.451 0.293-0.707 0.293s-0.512-0.098-0.707-0.293l-2.293-2.293-2.293 2.293c-0.195 0.195-0.451 0.293-0.707 0.293s-0.512-0.098-0.707-0.293c-0.391-0.391-0.391-1.023 0-1.414l2.293-2.293-2.293-2.293c-0.391-0.391-0.391-1.023 0-1.414s1.023-0.391 1.414 0l2.293 2.293 2.293-2.293c0.391-0.391 1.023-0.391 1.414 0s0.391 1.023 0 1.414l-2.293 2.293 2.293 2.293z"></path>
    </symbol>

    <symbol id="icon-backspace-outline" viewBox="0 0 24 24">
      <path d="M19 21h-10c-1.436 0-3.145-0.88-3.977-2.046l-2.619-3.667c-0.629-0.881-1.157-1.621-1.188-1.661-0.246-0.344-0.249-0.894-0.008-1.241 0.018-0.025 0.561-0.783 1.204-1.686l2.608-3.653c0.835-1.167 2.546-2.046 3.98-2.046h10c1.654 0 3 1.346 3 3v10c0 1.654-1.346 3-3 3zM3.229 12.999c0.215 0.299 0.498 0.696 0.806 1.125l2.618 3.667c0.451 0.633 1.57 1.209 2.348 1.209h10c0.552 0 1-0.45 1-1.001v-9.999c0-0.551-0.448-1-1-1h-10c-0.776 0-1.897 0.576-2.351 1.209l-2.608 3.652c-0.312 0.436-0.599 0.838-0.813 1.138z"></path>
      <path d="M13.707 13l2.646-2.646c0.194-0.194 0.194-0.512 0-0.707-0.195-0.194-0.513-0.194-0.707 0l-2.646 2.646-2.646-2.646c-0.195-0.194-0.513-0.194-0.707 0-0.195 0.195-0.195 0.513 0 0.707l2.646 2.646-2.646 2.646c-0.195 0.195-0.195 0.513 0 0.707 0.097 0.098 0.225 0.147 0.353 0.147s0.256-0.049 0.354-0.146l2.646-2.647 2.646 2.646c0.098 0.098 0.226 0.147 0.354 0.147s0.256-0.049 0.354-0.146c0.194-0.194 0.194-0.512 0-0.707l-2.647-2.647z"></path>
    </symbol>
    
    <symbol id="icon-tab" viewBox="0 0 24 24">
      <path d="M20.016 6h1.969v12h-1.969v-12zM11.578 7.406l1.406-1.406 6 6-6 6-1.406-1.406 3.609-3.609h-14.203v-1.969h14.203z"></path>
    </symbol>
    
    <symbol id="icon-capslock" viewBox="0 0 16 24">
      <path fill="none" stroke="currentColor" stroke-width="1.3714" stroke-miterlimit="4" stroke-linecap="butt" stroke-linejoin="miter" d="M1.056 8.229c0.053 0.128 0.177 0.212 0.315 0.213h3.086v6.514c0 0.189 0.153 0.343 0.343 0.343h6.857c0.189 0 0.343-0.153 0.343-0.343v-6.514h3.086c0.137-0.002 0.26-0.085 0.312-0.212s0.024-0.273-0.072-0.371l-6.857-6.857c-0.064-0.065-0.152-0.101-0.243-0.101s-0.179 0.037-0.243 0.101l-6.857 6.857c-0.095 0.099-0.122 0.244-0.069 0.37z"></path>
      <path fill="none" stroke="currentColor" stroke-width="1.3714" stroke-miterlimit="4" stroke-linecap="butt" stroke-linejoin="miter" d="M11.657 18.062h-6.857c-0.189 0-0.343 0.153-0.343 0.343v4.114c0 0.189 0.153 0.343 0.343 0.343h6.857c0.189 0 0.343-0.153 0.343-0.343v-4.114c0-0.189-0.153-0.343-0.343-0.343z"></path>
    </symbol>
    
    <symbol id="icon-shift" viewBox="0 0 27 24">
      <path fill="none" stroke="currentColor" stroke-width="2.2857" stroke-miterlimit="4" stroke-linecap="butt" stroke-linejoin="miter" d="M1.76 13.714c0.088 0.213 0.295 0.353 0.526 0.354h5.143v7.429c0 0.316 0.256 0.571 0.571 0.571h11.429c0.316 0 0.571-0.256 0.571-0.571v-7.429h5.143c0.229-0.003 0.433-0.142 0.52-0.354s0.040-0.454-0.12-0.618l-11.429-11.429c-0.107-0.108-0.253-0.169-0.406-0.169s-0.298 0.061-0.406 0.169l-11.429 11.429c-0.158 0.165-0.203 0.407-0.114 0.617z"></path>
    </symbol>
    
    <symbol id="icon-enter" viewBox="0 0 45 24">
      <path d="M7.259 14.284l5.407 5.86c0.531 0.56 0.745 1.385 0.563 2.163s-0.734 1.392-1.447 1.609c-0.713 0.218-1.479 0.007-2.009-0.553l-9.138-9.821c-0.405-0.42-0.634-1.002-0.634-1.609s0.229-1.189 0.634-1.609l8.909-9.656c0.82-0.889 2.15-0.889 2.97 0s0.82 2.33 0 3.219l-5.407 5.86h33.581v-7.428c0-1.231 0.921-2.228 2.056-2.228s2.056 0.998 2.056 2.228v9.739c0 1.231-0.921 2.228-2.056 2.228h-35.485z"></path>
    </symbol>
  </defs>
</svg>
